# xmcd CD database file
#
# Track frame offsets:
#	150
#	10505
#	25338
#	40513
#	54945
#	72645
#	85630
#	101320
#	116123
#	130113
#	144958
#	178430
#
# Disc length: 2444 seconds
#
# Revision: 0
# Processed by: cddbd v1.5.2PL0 Copyright (c) Steve Scherf et al.
# Submitted via: CDex 1.70beta2
#
DISCID=95098a0c
DTITLE=Benny Goodman - Benny Goodman
DYEAR=1900
DGENRE=Jazz
TTITLE0=Let's Dance
TTITLE1=Stompin' At The Savoy
TTITLE2=Memories Of You
TTITLE3=What'd I Say
TTITLE4=One O'Clock Jump
TTITLE5=Blue Lou
TTITLE6=Moonglow
TTITLE7=Avalon
TTITLE8=Get Happy
TTITLE9=Good-Bye
TTITLE10=Sing, Sing Sing
TTITLE11=Shine
EXTD=
EXTT0=
EXTT1=
EXTT2=
EXTT3=
EXTT4=
EXTT5=
EXTT6=
EXTT7=
EXTT8=
EXTT9=
EXTT10=
EXTT11=
PLAYORDER=
